<?xml version="1.0" encoding="UTF-8" standalone="no"?>
<!-- Generator: Adobe Illustrator 16.0.0, SVG Export Plug-In . SVG Version: 6.00 Build 0)  -->

<svg
   xmlns:dc="http://purl.org/dc/elements/1.1/"
   xmlns:cc="http://creativecommons.org/ns#"
   xmlns:rdf="http://www.w3.org/1999/02/22-rdf-syntax-ns#"
   xmlns:svg="http://www.w3.org/2000/svg"
   xmlns="http://www.w3.org/2000/svg"
   xmlns:sodipodi="http://sodipodi.sourceforge.net/DTD/sodipodi-0.dtd"
   xmlns:inkscape="http://www.inkscape.org/namespaces/inkscape"
   version="1.1"
   id="Capa_1"
   x="0px"
   y="0px"
   width="488.484px"
   height="488.484px"
   viewBox="0 0 488.484 488.484"
   style="enable-background:new 0 0 488.484 488.484;"
   xml:space="preserve"
   inkscape:version="0.91 r13725"
   sodipodi:docname="initials_it.svg"><metadata
     id="metadata47"><rdf:RDF><cc:Work
         rdf:about=""><dc:format>image/svg+xml</dc:format><dc:type
           rdf:resource="http://purl.org/dc/dcmitype/StillImage" /><dc:title></dc:title></cc:Work></rdf:RDF></metadata><defs
     id="defs45" /><sodipodi:namedview
     pagecolor="#ffffff"
     bordercolor="#666666"
     borderopacity="1"
     objecttolerance="10"
     gridtolerance="10"
     guidetolerance="10"
     inkscape:pageopacity="0"
     inkscape:pageshadow="2"
     inkscape:window-width="1390"
     inkscape:window-height="879"
     id="namedview43"
     showgrid="false"
     showguides="true"
     inkscape:guide-bbox="true"
     inkscape:zoom="0.34162265"
     inkscape:cx="-378.31652"
     inkscape:cy="277.75905"
     inkscape:window-x="1410"
     inkscape:window-y="21"
     inkscape:window-maximized="1"
     inkscape:current-layer="layer2" /><g
     id="g13" /><g
     id="g15" /><g
     id="g17" /><g
     id="g19" /><g
     id="g21" /><g
     id="g23" /><g
     id="g25" /><g
     id="g27" /><g
     id="g29" /><g
     id="g31" /><g
     id="g33" /><g
     id="g35" /><g
     id="g37" /><g
     id="g39" /><g
     id="g41" /><g
     inkscape:groupmode="layer"
     id="layer1"
     inkscape:label="Layer 1" /><g
     inkscape:groupmode="layer"
     id="layer2"
     inkscape:label="Layer 2"><path
       d="m 203.04074,184.18525 c -12.3301,0 -22.24131,9.99476 -22.24131,22.33405 l 0,99.18639 c 0,12.34013 9.91121,22.33823 22.24131,22.33823 12.34012,0 22.24214,-9.99893 22.24214,-22.33823 l 0,-99.18639 c -8.8e-4,-12.33929 -9.90202,-22.33405 -22.24214,-22.33405 z"
       id="path9"
       inkscape:connector-curvature="0" /><path
       d="m 203.04074,101.53088 c -16.66824,0 -30.16475,13.50069 -30.16475,30.15557 0,16.6557 13.49567,30.15639 30.16475,30.15639 16.65152,0 30.1472,-13.50069 30.1472,-30.15639 -8.8e-4,-16.65488 -13.49568,-30.15557 -30.1472,-30.15557 z"
       id="path11"
       inkscape:connector-curvature="0" /><path
       inkscape:connector-curvature="0"
       d="m 319.49107,298.60009 -34.07118,0 c -12.72787,0 -23.08235,-10.35499 -23.08235,-23.08233 l 0,-20.1147 57.15353,0 c 7.91026,0 14.32262,-6.41236 14.32262,-14.32261 0,-7.91026 -6.41236,-14.32263 -14.32262,-14.32263 l -57.15405,0 0,-28.41609 c 0,-7.91026 -6.41236,-14.32262 -14.32262,-14.32262 -7.91026,0 -14.32263,6.41236 -14.32263,14.32262 l 0,77.17603 c 0,28.52286 23.20526,51.72759 51.72759,51.72759 l 34.07119,0 c 7.91024,0 14.32261,-6.41237 14.32261,-14.32263 4.5e-4,-7.91025 -6.41183,-14.32263 -14.32209,-14.32263 z"
       id="path3" /><path
       d="m 235.63451,11.239754 c -126.76624,0 -229.8950052,103.129716 -229.8950052,229.895006 0,126.77095 103.1297052,229.90255 229.8950052,229.90255 126.77566,0 229.90724,-103.13067 229.90724,-229.90255 C 465.54087,114.37041 362.41017,11.239754 235.63451,11.239754 Z m 0,389.330306 c -87.91575,0 -159.434381,-71.51765 -159.434381,-159.43341 0,-87.91199 71.517681,-159.429682 159.434381,-159.429682 87.9167,0 159.44474,71.517692 159.44474,159.429682 0,87.91669 -71.52804,159.43341 -159.44474,159.43341 z"
       id="path7"
       inkscape:connector-curvature="0" /></g></svg>