<?xml version="1.0" encoding="iso-8859-1"?>
<!-- Generator: Adobe Illustrator 19.0.0, SVG Export Plug-In . SVG Version: 6.00 Build 0)  -->
<svg version="1.1" id="Layer_1" xmlns="http://www.w3.org/2000/svg" xmlns:xlink="http://www.w3.org/1999/xlink" x="0px" y="0px"
	 viewBox="0 0 512 512" style="enable-background:new 0 0 512 512;" xml:space="preserve">
<g>
	<path style="fill:#5B5D6E;" d="M141.241,128H88.276c-4.875,0-8.828,3.953-8.828,8.828v18.761h70.621v-18.761
		C150.069,131.953,146.116,128,141.241,128z"/>
	<path style="fill:#5B5D6E;" d="M450.207,128h-17.655c-4.875,0-8.828,3.953-8.828,8.828v18.761h35.31v-18.761
		C459.034,131.953,455.082,128,450.207,128z"/>
</g>
<path style="fill:#707487;" d="M459.034,145.655H52.966C23.713,145.655,0,169.368,0,198.621v194.207
	c0,19.501,15.809,35.31,35.31,35.31H476.69c19.501,0,35.31-15.809,35.31-35.31V198.621C512,169.368,488.287,145.655,459.034,145.655
	z"/>
<path style="fill:#868CA1;" d="M459.034,145.655H52.966C23.713,145.655,0,169.368,0,198.621h512
	C512,169.368,488.287,145.655,459.034,145.655z"/>
<circle style="fill:#464655;" cx="441.379" cy="278.069" r="26.483"/>
<path style="fill:#5B5D6E;" d="M424.502,213.351l-21.358-101.452c-3.439-16.34-17.855-28.036-34.553-28.036h-119.25
	c-16.697,0-31.113,11.697-34.553,28.036l-21.358,101.452c-10.743,19.137-16.877,41.209-16.877,64.718
	c0,73.13,59.284,132.414,132.414,132.414s132.414-59.284,132.414-132.414C441.379,254.56,435.245,232.488,424.502,213.351z"/>
<circle style="fill:#464655;" cx="308.966" cy="278.069" r="97.103"/>
<path style="fill:#707487;" d="M308.966,384c-58.41,0-105.931-47.521-105.931-105.931s47.521-105.931,105.931-105.931
	s105.931,47.521,105.931,105.931S367.375,384,308.966,384z M308.966,189.793c-48.676,0-88.276,39.599-88.276,88.276
	s39.599,88.276,88.276,88.276s88.276-39.599,88.276-88.276S357.642,189.793,308.966,189.793z"/>
<circle style="fill:#5B5D6E;" cx="308.966" cy="278.069" r="44.138"/>
<path style="fill:#464655;" d="M308.966,260.414c-9.737,0-17.655,7.918-17.655,17.655c0,9.737,7.918,17.655,17.655,17.655
	s17.655-7.918,17.655-17.655C326.621,268.332,318.702,260.414,308.966,260.414z"/>
<path style="fill:#D7DEED;" d="M348.69,216.276c-12.171,0-22.069,9.898-22.069,22.069c0,12.171,9.898,22.069,22.069,22.069
	c12.171,0,22.069-9.898,22.069-22.069C370.759,226.174,360.861,216.276,348.69,216.276z"/>
<g>
	<path style="fill:#FFFFFF;" d="M317.793,256c-7.303,0-13.241,5.939-13.241,13.241c0,7.303,5.939,13.241,13.241,13.241
		c7.303,0,13.241-5.939,13.241-13.241C331.034,261.939,325.096,256,317.793,256z"/>
	<path style="fill:#FFFFFF;" d="M349.341,260.348c-4.445-10.106-12.548-18.21-22.655-22.655c-0.007,0.222-0.066,0.428-0.066,0.651
		c0,12.171,9.898,22.069,22.069,22.069C348.913,260.414,349.12,260.354,349.341,260.348z"/>
</g>
<path style="fill:#707487;" d="M404.675,119.172l-1.532-7.274c-3.441-16.34-17.855-28.036-34.553-28.036h-119.25
	c-16.698,0-31.113,11.697-34.553,28.036l-1.532,7.274H404.675z"/>
<g>
	<path style="fill:#5B5D6E;" d="M110.345,401.655L110.345,401.655c-7.313,0-13.241-5.929-13.241-13.241V238.345
		c0-7.313,5.929-13.241,13.241-13.241l0,0c7.313,0,13.241,5.929,13.241,13.241v150.069
		C123.586,395.727,117.657,401.655,110.345,401.655z"/>
	<circle style="fill:#5B5D6E;" cx="52.966" cy="198.621" r="17.655"/>
</g>
<g>
</g>
<g>
</g>
<g>
</g>
<g>
</g>
<g>
</g>
<g>
</g>
<g>
</g>
<g>
</g>
<g>
</g>
<g>
</g>
<g>
</g>
<g>
</g>
<g>
</g>
<g>
</g>
<g>
</g>
</svg>
