<?xml version="1.0" encoding="iso-8859-1"?>
<!-- Generator: Adobe Illustrator 19.0.0, SVG Export Plug-In . SVG Version: 6.00 Build 0)  -->
<svg version="1.1" id="Layer_1" xmlns="http://www.w3.org/2000/svg" xmlns:xlink="http://www.w3.org/1999/xlink" x="0px" y="0px"
	 viewBox="0 0 512 512" style="enable-background:new 0 0 512 512;" xml:space="preserve">
<path style="fill:#00CEA6;" d="M256,489.739L222.761,512c-55.475-63.58-89.196-147.415-89.196-239.304
	C133.565,163.664,181.037,65.97,256,0c74.963,65.97,122.435,163.664,122.435,272.696c0,91.89-33.721,175.724-89.196,239.304
	L256,489.739z"/>
<path style="fill:#00A384;" d="M306.087,491.139c-5.368,7.167-10.979,14.133-16.849,20.861L256,489.739L222.761,512
	c-5.87-6.727-11.48-13.695-16.848-20.861V54.221C220.743,34.426,237.536,16.249,256,0c18.464,16.249,35.257,34.428,50.087,54.221
	V491.139z"/>
<path style="fill:#C1F4D3;" d="M267.13,66.783v244.87c0,6.147-4.983,11.13-11.13,11.13s-11.13-4.983-11.13-11.13V66.783
	c0-6.147,4.983-11.13,11.13-11.13S267.13,60.635,267.13,66.783z M256,378.435c-6.147,0-11.13,4.983-11.13,11.13v11.13
	c0,6.147,4.983,11.13,11.13,11.13s11.13-4.983,11.13-11.13v-11.13C267.13,383.418,262.147,378.435,256,378.435z"/>
<g>
</g>
<g>
</g>
<g>
</g>
<g>
</g>
<g>
</g>
<g>
</g>
<g>
</g>
<g>
</g>
<g>
</g>
<g>
</g>
<g>
</g>
<g>
</g>
<g>
</g>
<g>
</g>
<g>
</g>
</svg>
